<svg width="25" height="29" viewBox="0 0 25 29" fill="none" xmlns="http://www.w3.org/2000/svg">
<path d="M12.343 21.4598L13.9142 25.1621C13.9496 25.2468 13.9202 25.346 13.8442 25.3973L9.68091 28.2857C9.64874 28.3083 9.61097 28.3201 9.57181 28.3201C9.49115 28.3201 9.4189 28.2683 9.39186 28.1917L0.128142 3.77633C0.0978376 3.69401 0.12674 3.60086 0.198071 3.55052L4.5805 0.511549C4.65416 0.461213 4.75347 0.469214 4.81828 0.53037L24.0637 18.0492C24.1038 18.0859 24.1266 18.1376 24.1266 18.1922C24.1266 18.2552 24.0963 18.314 24.045 18.3503L19.8118 21.2622C19.7363 21.314 19.6337 21.3041 19.5694 21.2387L16.7721 18.402C16.7077 18.3366 16.6052 18.3267 16.5296 18.3785L12.413 21.2246C12.337 21.2759 12.3076 21.3751 12.343 21.4598ZM6.32415 8.05254C7.7834 10.7716 9.04686 13.4578 10.1565 16.2286C10.2404 16.4389 10.3742 16.4794 10.5574 16.3509L12.6414 14.9161C12.8186 14.7938 12.8311 14.6588 12.6787 14.5116C10.5308 12.3979 8.46876 10.1963 6.49201 7.90671C6.46403 7.87237 6.42811 7.86108 6.38476 7.87378C6.37217 7.87989 6.36007 7.88788 6.34748 7.89729C6.30086 7.94434 6.29291 7.99609 6.32415 8.05254Z" fill="#001219"/>
</svg>
