<svg width="22" height="28" viewBox="0 0 22 28" fill="none" xmlns="http://www.w3.org/2000/svg">
<path d="M0.938701 3.78575C0.927978 3.75517 0.922852 3.72317 0.922852 3.69071C0.922852 3.56793 1.00071 3.45832 1.11587 3.4188L7.81539 1.09017C11.9144 -0.333827 16.4576 1.92566 17.881 6.09555L21.0373 15.3395L21.0377 15.3409C22.4606 19.5108 20.2592 24.114 16.1607 25.5384L9.46113 27.8671C9.43083 27.8779 9.39913 27.8831 9.36696 27.8831C9.24528 27.8831 9.13665 27.8045 9.09749 27.6883L0.938701 3.78575ZM7.57295 6.89529L12.4216 21.0929C12.4692 21.233 12.6011 21.3281 12.748 21.3281C12.7862 21.3281 12.824 21.3215 12.8599 21.3093L14.2119 20.8388L14.2137 20.8384C15.6963 20.3232 16.48 18.6226 15.9509 17.0707L12.8086 7.87379C12.2794 6.32325 10.6257 5.46988 9.14411 5.98265L7.78742 6.45308C7.60839 6.51518 7.51141 6.71464 7.57295 6.89529Z" fill="#001219"/>
</svg>
