<svg width="36" height="29" viewBox="0 0 36 29" fill="none" xmlns="http://www.w3.org/2000/svg">
<path d="M3.37013 6.47663C4.92534 6.47663 6.18608 5.20447 6.18608 3.63521C6.18608 2.06595 4.92534 0.793823 3.37013 0.793823C1.81493 0.793823 0.554199 2.06595 0.554199 3.63521C0.554199 5.20447 1.81493 6.47663 3.37013 6.47663Z" fill="#001219"/>
<path d="M26.0515 21.314L31.455 15.523C31.537 15.436 31.6755 15.4317 31.7627 15.5136L35.1287 18.6984C35.215 18.7812 35.2192 18.9209 35.1381 19.0089L26.0795 28.695C25.9974 28.7821 25.859 28.7863 25.7718 28.7045L7.47281 11.2844C7.38656 11.2016 7.38235 11.0619 7.46347 10.9739L16.2796 1.56064C16.3617 1.47361 16.5001 1.46936 16.5873 1.55122L19.9301 4.75956C20.0164 4.84235 20.0205 4.98206 19.9394 5.07003L14.7644 10.56C14.6833 10.6479 14.6875 10.7876 14.7738 10.8704L18.1911 14.154C18.2774 14.2373 18.4154 14.235 18.4988 14.1494L23.1703 9.15807C23.2524 9.07104 23.3908 9.06682 23.478 9.14868L26.6949 12.2065C26.7811 12.2893 26.7853 12.429 26.7042 12.5169L22.0374 17.5035C21.9563 17.5915 21.9605 17.7312 22.0467 17.814L25.7438 21.3234C25.831 21.4053 25.9695 21.401 26.0515 21.314Z" fill="#001219"/>
</svg>
