<svg width="16" height="28" viewBox="0 0 16 28" fill="none" xmlns="http://www.w3.org/2000/svg">
<path d="M6.60959 16.738L5.44405 26.9981C5.43519 27.0762 5.36899 27.136 5.29113 27.136C5.28461 27.136 5.27808 27.1355 5.27156 27.1345L0.343646 26.5465C0.266255 26.5376 0.207031 26.4708 0.207031 26.3922C0.207031 26.3856 0.207522 26.379 0.208454 26.3724L3.10831 1.07741C3.11716 0.999319 3.18337 0.939575 3.26123 0.939575C3.26775 0.939575 3.27428 0.940041 3.2808 0.940982L15.561 2.37109C15.6383 2.38003 15.6975 2.44683 15.6975 2.5254C15.6975 2.53198 15.6971 2.53856 15.6961 2.54515L15.1786 7.26827C15.1698 7.34636 15.1036 7.40611 15.0257 7.40611C15.0192 7.40611 15.0127 7.40564 15.0062 7.4047L7.94297 6.55322C7.93644 6.55228 7.92991 6.5518 7.92339 6.5518C7.84553 6.5518 7.77933 6.61155 7.77047 6.68964L7.20634 11.5868C7.2054 11.5934 7.20494 11.6 7.20494 11.6066C7.20494 11.6851 7.26416 11.7519 7.34156 11.7609L13.6681 12.4853C13.7455 12.4943 13.8047 12.5611 13.8047 12.6396C13.8047 12.6462 13.8042 12.6528 13.8033 12.6594L13.3138 17.1849C13.3049 17.263 13.2387 17.3228 13.1609 17.3228C13.1543 17.3228 13.1478 17.3223 13.1413 17.3214L6.78209 16.6016C6.77556 16.6007 6.76904 16.6002 6.76251 16.6002C6.68466 16.6002 6.61845 16.6599 6.60959 16.738Z" fill="#001219"/>
</svg>
