<svg width="14" height="37" viewBox="0 0 14 37" fill="none" xmlns="http://www.w3.org/2000/svg">
<path d="M2.97734 5.80456C4.53512 5.80456 5.79794 4.53032 5.79794 2.95846C5.79794 1.3866 4.53512 0.112366 2.97734 0.112366C1.41956 0.112366 0.156738 1.3866 0.156738 2.95846C0.156738 4.53032 1.41956 5.80456 2.97734 5.80456Z" fill="#001219"/>
<path fill-rule="evenodd" clip-rule="evenodd" d="M7.53261 10.1001L13.7313 34.7157C13.7566 34.8164 13.696 34.9189 13.5957 34.9448L8.83135 36.174C8.73107 36.1999 8.62931 36.1393 8.60395 36.0386L2.40527 11.423C2.37991 11.3223 2.4406 11.2198 2.54087 11.1939L7.30521 9.96471C7.40549 9.93883 7.50725 9.99944 7.53261 10.1001Z" fill="#001219"/>
</svg>
