<svg width="24" height="27" viewBox="0 0 24 27" fill="none" xmlns="http://www.w3.org/2000/svg">
<path d="M5.80916 11.3106C6.1728 15.8268 6.38867 20.6708 6.4572 25.8422C6.46047 26.0398 6.36395 26.1433 6.16814 26.1527L1.90693 26.3221C1.51857 26.3376 1.32089 26.1494 1.31483 25.7575L0.867262 0.843559C0.863998 0.627161 0.968437 0.515688 1.17963 0.509572L5.81848 0.373129C6.03294 0.367013 6.18213 0.462533 6.26605 0.660113L12.0005 14.0391C12.069 14.1991 12.1357 14.1977 12.201 14.0344L17.3993 0.47193C17.4613 0.30869 17.5778 0.224023 17.7489 0.217908L22.4811 0.0485311C22.6955 0.0391225 22.806 0.142633 22.8121 0.359031C22.9673 7.39667 23.1058 14.1097 23.227 20.4981C23.2582 22.1352 23.2657 23.8194 23.2503 25.5506C23.2503 25.7637 23.1445 25.8719 22.9333 25.8752L18.5135 25.9457C18.3177 25.949 18.2166 25.8516 18.2105 25.654C18.1359 23.8603 18.0814 22.1244 18.0473 20.4464C17.996 17.8073 18.2525 15.0929 18.1779 12.355C18.1639 11.8093 18.397 11.2072 18.3364 10.6568C18.2865 10.2301 18.1965 10.2206 18.066 10.6285L14.947 20.2206C14.8943 20.3772 14.7871 20.4591 14.6253 20.4652L10.061 20.644C9.76873 20.6567 9.57152 20.5231 9.46896 20.2441L6.15415 11.2354C5.85577 10.4229 5.74062 10.4483 5.80916 11.3106Z" fill="#001219"/>
</svg>
