<svg width="19" height="21" viewBox="0 0 19 21" fill="none" xmlns="http://www.w3.org/2000/svg">
<path d="M14.4765 19.3113C10.6768 21.6822 6.79325 20.5673 4.49015 16.7851C3.37729 14.9537 2.33016 13.1425 1.34784 11.3516C-0.144053 8.63252 -0.0461436 5.30658 2.29892 3.0344C4.29433 1.09623 7.40399 -0.150405 10.0474 0.86102C13.1897 2.06532 14.5604 5.40067 16.2388 8.1574C18.7097 12.2125 19.1293 16.4087 14.4765 19.3113ZM9.29589 6.65061C8.74296 5.71539 7.52568 5.40443 6.59838 5.96189L6.47016 6.03904C5.54332 6.59697 5.23515 7.82527 5.78762 8.76095L9.13925 14.4343C9.69218 15.3696 10.9095 15.6805 11.8368 15.123L11.965 15.0459C12.8918 14.488 13.2 13.2597 12.6475 12.324L9.29589 6.65061Z" fill="#001219"/>
</svg>
