<svg width="20" height="30" viewBox="0 0 20 30" fill="none" xmlns="http://www.w3.org/2000/svg">
<path d="M7.13935 19.0331L5.53091 26.9128C5.49362 27.0948 5.38498 27.1668 5.20456 27.1292L0.570366 26.1789C0.399264 26.1446 0.332599 26.0411 0.369896 25.8684L5.44233 1.02029C5.46331 0.924795 5.55749 0.863635 5.65213 0.883864C7.31513 1.27902 9.08347 1.64596 10.9577 1.98467C15.783 2.85496 19.289 4.70846 19.2004 10.2219C19.1444 13.7689 17.6339 17.5136 14.2352 18.9484C14.1177 19.0006 14.0543 19.129 14.086 19.2495L16.7341 29.312C16.7369 29.3237 16.7383 29.3355 16.7383 29.3472C16.7383 29.43 16.6711 29.4978 16.5891 29.4978C16.5798 29.4978 16.5704 29.4973 16.5616 29.4954L11.3819 28.4276C11.2542 28.4017 11.1521 28.3024 11.1208 28.1735L8.94362 19.3435C8.88441 19.1022 8.73055 18.9799 8.48205 18.9766C8.15244 18.9733 7.84194 18.9169 7.54962 18.8073C7.32258 18.7226 7.18597 18.7978 7.13935 19.0331ZM9.58698 7.04179L8.23031 13.656C8.22798 13.6678 8.22657 13.68 8.22657 13.6923C8.22657 13.7751 8.28485 13.847 8.3655 13.863L10.2024 14.2441C11.7008 14.555 13.202 13.4985 13.5312 11.9013L13.7643 10.777C13.7643 10.7761 13.7648 10.7747 13.7648 10.7737C14.0934 9.17426 13.1293 7.6002 11.629 7.28642L9.79212 6.90538C9.78047 6.90303 9.76835 6.90162 9.75622 6.90162C9.67417 6.90162 9.60284 6.96041 9.58698 7.04179Z" fill="#001219"/>
</svg>
