<svg width="17" height="28" viewBox="0 0 17 28" fill="none" xmlns="http://www.w3.org/2000/svg">
<path d="M15.7734 22.8718C15.4718 23.8441 14.7584 24.7568 13.6335 25.6097C11.2791 27.3926 7.58665 27.6702 4.8453 26.6399C2.01397 25.5706 0.501559 23.1823 0.309012 19.4753C0.293627 19.2368 0.405519 19.1177 0.644688 19.1177H5.47468C5.64858 19.1177 5.74183 19.2057 5.75441 19.3812C5.87889 21.3697 6.88406 22.2447 8.77083 22.0062C11.8991 21.6157 11.0413 18.2992 9.05523 17.029C7.46404 16.0129 5.98147 15.0236 4.60753 14.0606C1.58318 11.9531 0.360299 9.18837 0.938407 5.76693C1.27408 3.7756 2.34031 2.30316 4.13664 1.3496C6.67752 -0.000536889 10.7196 0.0417978 13.1113 1.80121C14.8144 3.05584 15.7235 5.02225 15.8387 7.7004C15.8513 7.93233 15.7422 8.0471 15.5123 8.04381H10.7849C10.6091 8.04475 10.459 7.90973 10.4399 7.73332C10.2627 6.07129 9.37226 5.36236 7.76847 5.60698C5.29286 5.98333 5.93159 8.69771 7.51206 9.69502C12.6078 12.9128 18.1045 15.3684 15.7734 22.8718Z" fill="#001219"/>
</svg>
