<svg width="29" height="22" viewBox="0 0 29 22" fill="none" xmlns="http://www.w3.org/2000/svg">
<path d="M4.92415 16.6244L0.709549 14.5781C0.653603 14.5503 0.618164 14.4929 0.618164 14.4299C0.618164 14.405 0.623764 14.3796 0.634953 14.357L7.26922 0.709802C7.30838 0.63077 7.40441 0.597368 7.48367 0.634532L11.6983 2.6856C11.7561 2.71241 11.7938 2.77121 11.7938 2.83519C11.7938 2.86013 11.7882 2.88459 11.7775 2.9067L9.74949 7.15939C9.71266 7.23937 9.74575 7.33627 9.82407 7.37579L27.9412 16.3422C28.0196 16.3817 28.0527 16.4786 28.0158 16.5586L25.8106 21.2111C25.7831 21.2676 25.7262 21.3034 25.6638 21.3034C25.6391 21.3034 25.6139 21.2977 25.5915 21.2864L7.43239 12.2824C7.41002 12.2711 7.38484 12.2654 7.36013 12.2654C7.29766 12.2654 7.24078 12.3012 7.21327 12.3576L5.1386 16.5492C5.09944 16.6282 5.0034 16.6616 4.92415 16.6244Z" fill="#001219"/>
</svg>
