<svg width="23" height="29" viewBox="0 0 23 29" fill="none" xmlns="http://www.w3.org/2000/svg">
<path d="M12.3663 7.7414L22.292 25.5095C22.3372 25.5923 22.3078 25.6977 22.2267 25.7448L17.7977 28.2616C17.7156 28.3072 17.6112 28.2775 17.5645 28.1957L7.63881 10.4275C7.59219 10.3457 7.48776 10.3161 7.40571 10.3617L3.37759 12.6762C3.29554 12.7218 3.1911 12.6922 3.14448 12.6103L0.827402 8.49407C0.782179 8.41128 0.811543 8.3059 0.892665 8.25886L14.0166 0.793136C14.0987 0.747504 14.2031 0.777148 14.2498 0.859003L16.5435 4.99409C16.5888 5.07688 16.5594 5.18226 16.4783 5.2293L12.4315 7.50618C12.3504 7.55323 12.321 7.6586 12.3663 7.7414Z" fill="#001219"/>
</svg>
